<svg width="320" height="568" viewBox="0 0 320 568" fill="none" xmlns="http://www.w3.org/2000/svg">
<path d="M132.939 689.36C168.931 653.181 189.85 673.662 225.842 637.484C261.834 601.305 240.916 580.823 276.897 544.655C312.879 508.486 333.808 528.957 369.8 492.778C405.792 456.599 384.874 436.118 420.866 399.939C456.858 363.76 477.776 384.241 513.779 348.052C549.781 311.863 528.853 291.392 564.845 255.213" stroke="#F5FCF5" stroke-miterlimit="10"/>
<path d="M-276.222 282.066C-240.23 245.887 -219.311 266.368 -183.319 230.189C-147.327 194.01 -168.245 173.529 -132.264 137.361C-96.2817 101.192 -75.3532 121.663 -39.361 85.484C-3.36891 49.3051 -24.2871 28.8238 11.705 -7.35512C47.6971 -43.534 68.6153 -23.0528 104.618 -59.2421C140.62 -95.4315 119.692 -115.902 155.684 -152.081" stroke="#F5FCF5" stroke-miterlimit="10"/>
<path d="M-14.7839 537.233C21.2082 501.054 42.1264 521.536 78.1185 485.357C114.111 449.178 93.1925 428.696 129.174 392.528C165.156 356.359 186.085 376.83 222.077 340.651C258.069 304.472 237.151 283.991 273.143 247.812C309.135 211.633 330.053 232.114 366.056 195.925C402.058 159.736 381.129 139.265 417.122 103.086" stroke="#F5FCF5" stroke-miterlimit="10"/>
<path d="M-147.47 407.49C-111.478 371.311 -90.5596 391.792 -54.5675 355.613C-18.5754 319.434 -39.4936 298.953 -3.5118 262.785C32.47 226.616 53.3985 247.087 89.3907 210.908C125.383 174.729 104.465 154.248 140.457 118.069C176.449 81.89 197.367 102.371 233.37 66.1819C269.372 29.9926 248.443 9.52174 284.436 -26.6572" stroke="#F5FCF5" stroke-miterlimit="10"/>
<path d="M113.448 666.485C149.44 630.306 170.358 650.788 206.35 614.609C242.343 578.43 221.424 557.949 257.406 521.78C293.388 485.612 314.317 506.082 350.309 469.903C386.301 433.725 365.383 413.243 401.375 377.064C437.367 340.885 458.285 361.367 494.288 325.177C530.29 288.988 509.361 268.517 545.354 232.338" stroke="#F5FCF5" stroke-miterlimit="10"/>
<path d="M-212.952 348.859C-176.96 312.68 -156.042 333.161 -120.05 296.982C-84.0578 260.803 -104.976 240.322 -68.9942 204.153C-33.0125 167.985 -12.0839 188.456 23.9083 152.277C59.9004 116.098 38.9821 95.6165 74.9743 59.4376C110.966 23.2587 131.885 43.7399 167.887 7.5506C203.89 -28.6387 182.961 -49.1096 218.953 -85.2885" stroke="#F5FCF5" stroke-miterlimit="10"/>
<path d="M47.9656 603.597C83.9577 567.418 104.876 587.899 140.868 551.72C176.86 515.541 155.942 495.06 191.924 458.891C227.906 422.723 248.834 443.194 284.826 407.015C320.818 370.836 299.9 350.355 335.892 314.176C371.884 277.997 392.803 298.478 428.805 262.289C464.808 226.099 443.879 205.628 479.871 169.449" stroke="#F5FCF5" stroke-miterlimit="10"/>
<path d="M-84.2004 474.284C-48.2083 438.105 -27.2901 458.586 8.70204 422.407C44.6942 386.228 23.776 365.747 59.7577 329.578C95.7395 293.41 116.668 313.881 152.66 277.702C188.652 241.523 167.734 221.041 203.726 184.863C239.718 148.684 260.637 169.165 296.639 132.976C332.642 96.7862 311.713 76.3153 347.705 40.1364" stroke="#F5FCF5" stroke-miterlimit="10"/>
<path d="M176.718 733.279C212.71 697.1 233.628 717.581 269.62 681.402C305.612 645.223 284.694 624.742 320.676 588.573C356.658 552.405 377.586 572.876 413.578 536.697C449.571 500.518 428.652 480.036 464.644 443.858C500.637 407.679 521.555 428.16 557.557 391.971C593.56 355.781 572.631 335.31 608.623 299.131" stroke="#F5FCF5" stroke-miterlimit="10"/>
<path d="M-284.968 270.238C-248.976 234.059 -228.057 254.541 -192.065 218.362C-156.073 182.183 -176.991 161.702 -141.01 125.533C-105.028 89.3646 -84.0993 109.835 -48.1071 73.6565C-12.115 37.4776 -33.0332 16.9963 2.95889 -19.1826C38.951 -55.3616 59.8693 -34.8803 95.8717 -71.0696C131.874 -107.259 110.946 -127.73 146.938 -163.909" stroke="#F5FCF5" stroke-miterlimit="10"/>
<path d="M-23.5288 525.406C12.4633 489.227 33.3815 509.708 69.3737 473.529C105.366 437.35 84.4476 416.869 120.429 380.701C156.411 344.532 177.34 365.003 213.332 328.824C249.324 292.645 228.406 272.164 264.398 235.985C300.39 199.806 321.308 220.287 357.311 184.098C393.313 147.909 372.385 127.438 408.377 91.2588" stroke="#F5FCF5" stroke-miterlimit="10"/>
<path d="M-156.216 395.663C-120.224 359.484 -99.306 379.965 -63.3138 343.786C-27.3217 307.607 -48.2399 287.126 -12.2581 250.958C23.7236 214.789 44.6522 235.26 80.6443 199.081C116.636 162.902 95.7182 142.421 131.71 106.242C167.702 70.0629 188.621 90.5441 224.623 54.3548C260.626 18.1655 239.697 -2.30541 275.689 -38.4843" stroke="#F5FCF5" stroke-miterlimit="10"/>
<path d="M104.703 654.658C140.695 618.479 161.613 638.96 197.605 602.781C233.597 566.602 212.679 546.121 248.661 509.952C284.643 473.784 305.571 494.255 341.564 458.076C377.556 421.897 356.637 401.416 392.63 365.237C428.622 329.058 449.54 349.539 485.542 313.35C521.545 277.16 500.616 256.689 536.608 220.511" stroke="#F5FCF5" stroke-miterlimit="10"/>
<path d="M-221.698 337.031C-185.706 300.852 -164.788 321.334 -128.796 285.155C-92.8034 248.976 -113.722 228.494 -77.7398 192.326C-41.7581 156.157 -20.8295 176.628 15.1626 140.449C51.1548 104.27 30.2365 83.7891 66.2287 47.6102C102.221 11.4313 123.139 31.9125 159.142 -4.27679C195.144 -40.4661 174.215 -60.937 210.208 -97.1159" stroke="#F5FCF5" stroke-miterlimit="10"/>
<path d="M39.2202 591.769C75.2123 555.59 96.1306 576.072 132.123 539.893C168.115 503.714 147.197 483.232 183.178 447.064C219.16 410.895 240.089 431.366 276.081 395.187C312.073 359.008 291.155 338.527 327.147 302.348C363.139 266.169 384.057 286.651 420.06 250.461C456.062 214.272 435.134 193.801 471.126 157.622" stroke="#F5FCF5" stroke-miterlimit="10"/>
<path d="M-92.9458 462.456C-56.9537 426.277 -36.0355 446.758 -0.0433237 410.579C35.9488 374.4 15.0306 353.919 51.0124 317.75C86.9941 281.582 107.923 302.053 143.915 265.874C179.907 229.695 158.989 209.214 194.981 173.035C230.973 136.856 251.891 157.337 287.894 121.148C323.896 84.9584 302.968 64.4876 338.96 28.3086" stroke="#F5FCF5" stroke-miterlimit="10"/>
<path d="M167.972 721.451C203.964 685.272 224.882 705.754 260.874 669.575C296.867 633.396 275.948 612.915 311.93 576.746C347.912 540.578 368.84 561.048 404.833 524.87C440.825 488.691 419.906 468.209 455.899 432.03C491.891 395.851 512.809 416.333 548.811 380.143C584.814 343.954 563.885 323.483 599.877 287.304" stroke="#F5FCF5" stroke-miterlimit="10"/>
<path d="M-309.541 248.388C-273.549 212.209 -252.631 232.69 -216.639 196.511C-180.647 160.332 -201.565 139.851 -165.583 103.683C-129.601 67.5141 -108.673 87.985 -72.6806 51.806C-36.6885 15.6271 -57.6067 -4.85416 -21.6146 -41.0331C14.3775 -77.212 35.2958 -56.7308 71.2983 -92.9201C107.301 -129.109 86.3722 -149.58 122.364 -185.759" stroke="#F5FCF5" stroke-miterlimit="10"/>
<path d="M-48.1021 503.556C-12.1099 467.377 8.8083 487.858 44.8004 451.679C80.7926 415.5 59.8743 395.019 95.8561 358.851C131.838 322.682 152.766 343.153 188.759 306.974C224.751 270.795 203.832 250.314 239.825 214.135C275.817 177.956 296.735 198.437 332.737 162.248C368.74 126.059 347.811 105.588 383.804 69.4087" stroke="#F5FCF5" stroke-miterlimit="10"/>
<path d="M-180.789 378.07C-144.797 341.891 -123.879 362.372 -87.8868 326.193C-51.8947 290.015 -72.8129 269.533 -36.8311 233.365C-0.849367 197.196 20.0792 217.667 56.0713 181.488C92.0635 145.309 71.1452 124.828 107.137 88.649C143.129 52.4701 164.048 72.9514 200.05 36.762C236.053 0.572685 215.124 -19.8982 251.116 -56.0771" stroke="#F5FCF5" stroke-miterlimit="10"/>
<path d="M80.1287 632.807C116.121 596.628 137.039 617.109 173.031 580.931C209.023 544.752 188.105 524.27 224.087 488.102C260.069 451.933 280.997 472.404 316.989 436.225C352.981 400.046 332.063 379.565 368.055 343.386C404.047 307.207 424.966 327.688 460.968 291.499C496.971 255.31 476.042 234.839 512.034 198.66" stroke="#F5FCF5" stroke-miterlimit="10"/>
<path d="M-246.272 315.181C-210.28 279.002 -189.362 299.483 -153.369 263.304C-117.377 227.125 -138.296 206.644 -102.314 170.475C-66.332 134.307 -45.4035 154.778 -9.41133 118.599C26.5808 82.4198 5.66257 61.9386 41.6547 25.7596C77.6468 -10.4193 98.5651 10.062 134.568 -26.1274C170.57 -62.3167 149.641 -82.7876 185.634 -118.967" stroke="#F5FCF5" stroke-miterlimit="10"/>
<path d="M15.167 570.348C51.1591 534.169 72.0773 554.651 108.069 518.472C144.062 482.293 123.143 461.812 159.125 425.643C195.107 389.475 216.036 409.945 252.028 373.766C288.02 337.588 267.102 317.106 303.094 280.927C339.086 244.748 360.004 265.23 396.007 229.04C432.009 192.851 411.08 172.38 447.073 136.201" stroke="#F5FCF5" stroke-miterlimit="10"/>
<path d="M-117.52 440.606C-81.5276 404.427 -60.6094 424.908 -24.6173 388.729C11.3748 352.55 -9.54338 332.069 26.4384 295.9C62.4202 259.732 83.3487 280.203 119.341 244.024C155.333 207.845 134.415 187.363 170.407 151.185C206.399 115.006 227.317 135.487 263.32 99.2975C299.322 63.1082 278.394 42.6373 314.386 6.45841" stroke="#F5FCF5" stroke-miterlimit="10"/>
<path d="M143.399 699.601C179.391 663.422 200.31 683.903 236.302 647.724C272.294 611.545 251.376 591.064 287.357 554.895C323.339 518.727 344.268 539.198 380.26 503.019C416.252 466.84 395.334 446.358 431.326 410.18C467.318 374.001 488.236 394.482 524.239 358.293C560.241 322.103 539.313 301.632 575.305 265.453" stroke="#F5FCF5" stroke-miterlimit="10"/>
<path d="M-265.763 292.306C-229.771 256.127 -208.853 276.609 -172.86 240.43C-136.868 204.251 -157.787 183.769 -121.805 147.601C-85.823 111.432 -64.8944 131.903 -28.9023 95.7244C7.08983 59.5454 -13.8284 39.0642 22.1637 2.88524C58.1559 -33.2937 79.0741 -12.8124 115.077 -49.0018C151.079 -85.1911 130.15 -105.662 166.143 -141.841" stroke="#F5FCF5" stroke-miterlimit="10"/>
<path d="M-4.32397 547.475C31.6682 511.296 52.5864 531.777 88.5785 495.598C124.571 459.419 103.652 438.938 139.634 402.769C175.616 366.601 196.545 387.072 232.537 350.893C268.529 314.714 247.611 294.233 283.603 258.054C319.595 221.875 340.513 242.356 376.516 206.167C412.518 169.977 391.589 149.506 427.582 113.327" stroke="#F5FCF5" stroke-miterlimit="10"/>
<path d="M-137.011 417.731C-101.019 381.552 -80.1004 402.034 -44.1083 365.855C-8.11614 329.676 -29.0343 309.194 6.94742 273.026C42.9292 236.857 63.8578 257.328 99.8499 221.149C135.842 184.97 114.924 164.489 150.916 128.31C186.908 92.1312 207.826 112.613 243.829 76.4232C279.831 40.2338 258.903 19.7629 294.895 -16.416" stroke="#F5FCF5" stroke-miterlimit="10"/>
<path d="M123.907 676.726C159.899 640.547 180.818 661.028 216.81 624.849C252.802 588.671 231.884 568.189 267.865 532.021C303.847 495.852 324.776 516.323 360.768 480.144C396.76 443.965 375.842 423.484 411.834 387.305C447.826 351.126 468.744 371.607 504.747 335.418C540.749 299.229 519.821 278.758 555.813 242.579" stroke="#F5FCF5" stroke-miterlimit="10"/>
<path d="M-202.493 359.099C-166.501 322.92 -145.583 343.402 -109.591 307.223C-73.5988 271.044 -94.517 250.563 -58.5352 214.394C-22.5535 178.226 -1.62489 198.696 34.3672 162.517C70.3594 126.339 49.4411 105.857 85.4333 69.6783C121.425 33.4994 142.344 53.9807 178.346 17.7913C214.349 -18.398 193.42 -38.8689 229.412 -75.0478" stroke="#F5FCF5" stroke-miterlimit="10"/>
<path d="M58.4246 613.837C94.4167 577.658 115.335 598.14 151.327 561.961C187.319 525.782 166.401 505.3 202.383 469.132C238.365 432.963 259.293 453.434 295.285 417.255C331.277 381.076 310.359 360.595 346.351 324.416C382.343 288.237 403.262 308.718 439.264 272.529C475.267 236.34 454.338 215.869 490.33 179.69" stroke="#F5FCF5" stroke-miterlimit="10"/>
<path d="M-73.7415 484.524C-37.7493 448.345 -16.8311 468.826 19.161 432.647C55.1532 396.468 34.2349 375.987 70.2167 339.819C106.198 303.65 127.127 324.121 163.119 287.942C199.111 251.763 178.193 231.282 214.185 195.103C250.177 158.924 271.096 179.405 307.098 143.216C343.101 107.027 322.172 86.5557 358.164 50.3767" stroke="#F5FCF5" stroke-miterlimit="10"/>
<path d="M187.177 743.519C223.169 707.34 244.087 727.821 280.079 691.642C316.071 655.463 295.153 634.982 331.135 598.813C367.116 562.645 388.045 583.116 424.037 546.937C460.029 510.758 439.111 490.276 475.103 454.098C511.095 417.919 532.014 438.4 568.016 402.211C604.019 366.021 583.09 345.55 619.082 309.371" stroke="#F5FCF5" stroke-miterlimit="10"/>
<path d="M-127.98 430.365C-91.9876 394.186 -71.0694 414.667 -35.0773 378.488C0.91487 342.309 -20.0033 321.828 15.9784 285.659C51.9602 249.491 72.8888 269.962 108.881 233.783C144.873 197.604 123.955 177.123 159.947 140.944C195.939 104.765 216.857 125.246 252.86 89.0566C288.862 52.8672 267.934 32.3964 303.926 -3.78256" stroke="#F5FCF5" stroke-miterlimit="10"/>
<path d="M-320 238.147C-284.008 201.968 -263.09 222.45 -227.098 186.271C-191.105 150.092 -212.024 129.61 -176.042 93.4419C-140.06 57.2734 -119.131 77.7442 -83.1394 41.5653C-47.1472 5.38638 -68.0655 -15.0949 -32.0733 -51.2738C3.9188 -87.4527 24.837 -66.9715 60.8395 -103.161C96.842 -139.35 75.9134 -159.821 111.906 -196" stroke="#F5FCF5" stroke-miterlimit="10"/>
<path d="M-58.5608 493.315C-22.5687 457.136 -1.65044 477.617 34.3417 441.438C70.3338 405.259 49.4156 384.778 85.3974 348.61C121.379 312.441 142.308 332.912 178.3 296.733C214.292 260.554 193.374 240.073 229.366 203.894C265.358 167.715 286.276 188.196 322.279 152.007C358.281 115.818 337.353 95.3467 373.345 59.1678" stroke="#F5FCF5" stroke-miterlimit="10"/>
<path d="M-191.248 367.829C-155.256 331.65 -134.338 352.132 -98.3456 315.953C-62.3534 279.774 -83.2717 259.293 -47.2899 223.124C-11.3081 186.956 9.62047 207.426 45.6126 171.247C81.6047 135.069 60.6865 114.587 96.6786 78.4083C132.671 42.2294 153.589 62.7106 189.591 26.5213C225.594 -9.66804 204.665 -30.1389 240.658 -66.3178" stroke="#F5FCF5" stroke-miterlimit="10"/>
<path d="M69.6702 622.567C105.662 586.388 126.581 606.869 162.573 570.69C198.565 534.511 177.647 514.03 213.628 477.862C249.61 441.693 270.539 462.164 306.531 425.985C342.523 389.806 321.605 369.325 357.597 333.146C393.589 296.967 414.507 317.448 450.51 281.259C486.512 245.07 465.584 224.599 501.576 188.42" stroke="#F5FCF5" stroke-miterlimit="10"/>
<path d="M-256.731 304.94C-220.739 268.761 -199.82 289.242 -163.828 253.063C-127.836 216.884 -148.754 196.403 -112.773 160.234C-76.7908 124.066 -55.8622 144.537 -19.8701 108.358C16.1221 72.1789 -4.79617 51.6976 31.196 15.5187C67.1881 -20.6603 88.1063 -0.179003 124.109 -36.3683C160.111 -72.5577 139.183 -93.0286 175.175 -129.207" stroke="#F5FCF5" stroke-miterlimit="10"/>
<path d="M4.70801 560.108C40.7001 523.929 61.6184 544.41 97.6105 508.231C133.603 472.052 112.684 451.571 148.666 415.403C184.648 379.234 205.577 399.705 241.569 363.526C277.561 327.347 256.643 306.866 292.635 270.687C328.627 234.508 349.545 254.989 385.548 218.8C421.55 182.611 400.621 162.14 436.614 125.961" stroke="#F5FCF5" stroke-miterlimit="10"/>
<path d="M-295.427 259.998C-259.435 223.819 -238.516 244.3 -202.524 208.121C-166.532 171.942 -187.45 151.461 -151.469 115.292C-115.487 79.1238 -94.5582 99.5947 -58.5661 63.4158C-22.574 27.2368 -43.4922 6.75558 -7.50009 -29.4234C28.492 -65.6023 49.4103 -45.121 85.4128 -81.3104C121.415 -117.5 100.487 -137.971 136.479 -174.15" stroke="#F5FCF5" stroke-miterlimit="10"/>
<path d="M-33.9878 515.166C2.00434 478.987 22.9226 499.468 58.9147 463.289C94.9068 427.11 73.9886 406.629 109.97 370.46C145.952 334.292 166.881 354.763 202.873 318.584C238.865 282.405 217.947 261.923 253.939 225.744C289.931 189.566 310.849 210.047 346.852 173.857C382.854 137.668 361.926 117.197 397.918 81.0183" stroke="#F5FCF5" stroke-miterlimit="10"/>
<path d="M-166.675 385.422C-130.682 349.243 -109.764 369.725 -73.7721 333.546C-37.78 297.367 -58.6982 276.886 -22.7164 240.717C13.2654 204.549 34.194 225.019 70.1861 188.84C106.178 152.662 85.26 132.18 121.252 96.0013C157.244 59.8224 178.162 80.3037 214.165 44.1143C250.167 7.92498 229.239 -12.5459 265.231 -48.7248" stroke="#F5FCF5" stroke-miterlimit="10"/>
<path d="M94.2439 644.417C130.236 608.238 151.154 628.72 187.146 592.541C223.139 556.362 202.22 535.88 238.202 499.712C274.184 463.543 295.112 484.014 331.105 447.835C367.097 411.656 346.178 391.175 382.171 354.996C418.163 318.817 439.081 339.299 475.083 303.109C511.086 266.92 490.157 246.449 526.149 210.27" stroke="#F5FCF5" stroke-miterlimit="10"/>
<path d="M-232.158 326.79C-196.166 290.611 -175.248 311.093 -139.255 274.914C-103.263 238.735 -124.182 218.253 -88.1998 182.085C-52.218 145.916 -31.2894 166.387 4.70268 130.208C40.6948 94.0293 19.7766 73.5481 55.7687 37.3691C91.7608 1.19019 112.679 21.6715 148.682 -14.5179C184.684 -50.7072 163.755 -71.1781 199.748 -107.357" stroke="#F5FCF5" stroke-miterlimit="10"/>
<path d="M28.7612 581.528C64.7534 545.349 85.6716 565.83 121.664 529.651C157.656 493.473 136.738 472.991 172.719 436.823C208.701 400.654 229.63 421.125 265.622 384.946C301.614 348.767 280.696 328.286 316.688 292.107C352.68 255.928 373.598 276.409 409.601 240.22C445.603 204.031 424.675 183.56 460.667 147.381" stroke="#F5FCF5" stroke-miterlimit="10"/>
<path d="M-103.406 452.215C-67.4134 416.036 -46.4952 436.518 -10.503 400.339C25.4891 364.16 4.57087 343.679 40.5526 307.51C76.5344 271.341 97.463 291.812 133.455 255.633C169.447 219.454 148.529 198.973 184.521 162.794C220.513 126.615 241.432 147.097 277.434 110.907C313.436 74.7179 292.508 54.2471 328.5 18.0681" stroke="#F5FCF5" stroke-miterlimit="10"/>
<path d="M157.513 711.211C193.505 675.032 214.423 695.513 250.415 659.334C286.408 623.155 265.489 602.674 301.471 566.505C337.453 530.337 358.381 550.808 394.374 514.629C430.366 478.45 409.447 457.969 445.44 421.79C481.432 385.611 502.35 406.092 538.352 369.903C574.355 333.713 553.426 313.242 589.418 277.064" stroke="#F5FCF5" stroke-miterlimit="10"/>
</svg>
